<svg width="238" height="192" viewBox="0 0 238 192" fill="none" xmlns="http://www.w3.org/2000/svg">
<path d="M7.156 126.92V103.24L45.3 48.84H75.892V102.344H85.108V126.92H75.892V141H47.22V126.92H7.156ZM49.524 81.224L35.7 102.344H49.524V81.224Z" fill="url(#paint0_linear_80_55)"/>
<path d="M80.596 92.872C80.596 78.1093 83.7107 66.504 89.94 58.056C96.2547 49.608 105.94 45.384 118.996 45.384C131.967 45.384 141.609 49.6507 147.924 58.184C154.239 66.632 157.396 78.1947 157.396 92.872C157.396 107.635 154.239 119.283 147.924 127.816C141.609 136.264 131.967 140.488 118.996 140.488C105.94 140.488 96.2547 136.264 89.94 127.816C83.7107 119.283 80.596 107.635 80.596 92.872ZM129.364 92.872C129.364 86.0453 128.681 80.9253 127.316 77.512C125.951 74.0133 123.177 72.264 118.996 72.264C114.729 72.264 111.913 74.0133 110.548 77.512C109.183 80.9253 108.5 86.0453 108.5 92.872C108.5 99.784 109.183 104.989 110.548 108.488C111.913 111.901 114.729 113.608 118.996 113.608C123.177 113.608 125.951 111.901 127.316 108.488C128.681 104.989 129.364 99.784 129.364 92.872Z" fill="url(#paint1_linear_80_55)"/>
<path d="M153.156 126.92V103.24L191.3 48.84H221.892V102.344H231.108V126.92H221.892V141H193.22V126.92H153.156ZM195.524 81.224L181.7 102.344H195.524V81.224Z" fill="url(#paint2_linear_80_55)"/>
<defs>
<linearGradient id="paint0_linear_80_55" x1="0.5" y1="96" x2="72.7129" y2="96" gradientUnits="userSpaceOnUse">
<stop stop-color="white"/>
<stop offset="1" stop-color="#242424"/>
</linearGradient>
<linearGradient id="paint1_linear_80_55" x1="76.5" y1="96" x2="143.952" y2="96" gradientUnits="userSpaceOnUse">
<stop stop-color="white"/>
<stop offset="1" stop-color="#242424"/>
</linearGradient>
<linearGradient id="paint2_linear_80_55" x1="146.5" y1="96" x2="218.713" y2="96" gradientUnits="userSpaceOnUse">
<stop stop-color="white"/>
<stop offset="1" stop-color="#242424"/>
</linearGradient>
</defs>
</svg>
