<svg id="Artboard_1" data-name="Artboard 1" xmlns="http://www.w3.org/2000/svg" xmlns:xlink="http://www.w3.org/1999/xlink" viewBox="0 0 1080 1080"><defs><style>.cls-1{fill:url(#Gradiente_sem_nome_79);}.cls-2{fill:url(#Gradiente_sem_nome_53);}.cls-3{fill:url(#Gradiente_sem_nome_53-2);}.cls-4{fill:url(#Gradiente_sem_nome_86);}</style><linearGradient id="Gradiente_sem_nome_79" x1="83.5" y1="699.79" x2="234.17" y2="699.79" gradientUnits="userSpaceOnUse"><stop offset="0" stop-color="#316ff6"/><stop offset="1" stop-color="#00ecff"/></linearGradient><linearGradient id="Gradiente_sem_nome_53" x1="836.83" y1="699.79" x2="987.5" y2="699.79" gradientUnits="userSpaceOnUse"><stop offset="0" stop-color="#00ecff"/><stop offset="0.09" stop-color="#08d6fd"/><stop offset="0.28" stop-color="#17b1fb"/><stop offset="0.46" stop-color="#2294f9"/><stop offset="0.65" stop-color="#2a80f7"/><stop offset="0.83" stop-color="#2f73f6"/><stop offset="1" stop-color="#316ff6"/></linearGradient><linearGradient id="Gradiente_sem_nome_53-2" x1="535.5" y1="668.79" x2="535.5" y2="113.5" xlink:href="#Gradiente_sem_nome_53"/><linearGradient id="Gradiente_sem_nome_86" x1="535.5" y1="607.22" x2="535.5" y2="977" gradientUnits="userSpaceOnUse"><stop offset="0" stop-color="#00ecff"/><stop offset="0.16" stop-color="#02e7ff"/><stop offset="0.34" stop-color="#07d9fe"/><stop offset="0.54" stop-color="#10c2fc"/><stop offset="0.74" stop-color="#1da2fa"/><stop offset="0.95" stop-color="#2d79f7"/><stop offset="1" stop-color="#316ff6"/></linearGradient></defs><polygon class="cls-1" points="234.17 545.5 234.17 854.77 159.26 915.79 158.83 915.79 158.83 916.14 83.51 977.5 83.5 977.5 83.5 422.07 158.83 483.78 158.83 483.79 158.84 483.79 234.17 545.5"/><polygon class="cls-2" points="987.5 422.07 987.5 977.5 912.17 916.14 912.17 915.79 911.74 915.79 836.83 854.77 836.83 545.5 912.16 483.79 912.17 483.79 912.17 483.78 987.5 422.07"/><polygon class="cls-3" points="987.5 113.5 987.5 298.64 912.17 360.31 912.11 360.36 836.83 421.98 836.72 422.07 761.5 483.65 761.33 483.79 686.17 545.32 685.95 545.5 610.83 606.99 610.56 607.21 535.5 668.66 535.34 668.79 460.17 607.22 460.17 607.21 460.16 607.21 384.83 545.5 309.51 483.79 309.5 483.79 234.17 422.07 158.84 360.36 158.83 360.36 158.83 360.35 83.5 298.64 83.5 113.5 83.83 113.5 158.83 174.99 158.83 175.21 159.1 175.21 234.17 236.75 234.17 236.93 234.39 236.93 309.5 298.51 309.5 298.64 309.66 298.64 384.83 360.27 384.83 360.36 384.94 360.36 460.17 422.03 460.17 422.07 460.22 422.07 535.5 483.79 610.83 422.08 610.83 422.07 610.84 422.07 686.17 360.36 761.5 298.65 761.5 298.64 761.51 298.64 836.83 236.93 912.17 175.21 987.5 113.5"/><polygon class="cls-4" points="761.5 607.22 761.5 792.36 686.17 853.9 685.97 854.07 610.83 915.46 610.42 915.79 535.5 977 460.58 915.79 460.17 915.46 385.03 854.07 384.83 853.9 309.5 792.36 309.5 607.22 384.83 668.93 460.16 730.64 460.17 730.64 460.17 730.65 535.5 792.36 610.83 730.65 610.83 730.64 610.84 730.64 686.17 668.93 761.5 607.22"/></svg>